# xmcd
#
# Track frame offsets: 
#        150
#        50722
#        61718
#        77130
#        93066
#        108698
#        137512
#        160164
#        183887
#        205073
#        218370
#        237027
#        260843
#        282312
#        306409
#        323560
#        328712
#
# Disc length: 4730 seconds
#
# Revision: 1
# Processed by: cddbd v1.5.2PL0 Copyright (c) Steve Scherf et al.
# Submitted via: ExactAudioCopy v0.99pb4
#
DISCID=e9127811
DTITLE=The Communards - [CD 2) Red (Deluxe Edition 2012)
DYEAR=2012
DGENRE=Synthie-Pop
TTITLE0=Never Can Say Goodbye (Shep Pettibone Extended Mix)
TTITLE1=When The Boy In Your Heart Is The Boy In Your Arms
TTITLE2=I Just Want To Let You Know
TTITLE3=Scat
TTITLE4=Piece Of Saxophone
TTITLE5=Never Can Say Goodbye (San Paulo Dub Mix)
TTITLE6=For A Friend (Remix)
TTITLE7=Victims (Live In Paris 1987)
TTITLE8=Don't Leave Me This Way (Live In Paris 1987)
TTITLE9=Heavens Above (Live In Paris 1987)
TTITLE10=You Are My World (Live In Paris 1987)
TTITLE11=So Cold The Night (Live In Paris 1987)
TTITLE12=For A Friend (Live In Paris 1987)
TTITLE13=Never Can Say Goodbye (Live In Paris 1987)
TTITLE14=Hold On Tight (Live In Paris 1987)
TTITLE15=Spanish Rap
TTITLE16=Never Can Say Goodbye (Instrumental Mix)
EXTD=
EXTT0=
EXTT1=
EXTT2=
EXTT3=
EXTT4=
EXTT5=
EXTT6=
EXTT7=
EXTT8=
EXTT9=
EXTT10=
EXTT11=
EXTT12=
EXTT13=
EXTT14=
EXTT15=
EXTT16=
PLAYORDER=
